<svg xmlns="http://www.w3.org/2000/svg" xmlns:xlink="http://www.w3.org/1999/xlink" version="1.1" x="0px" y="0px" width="100px" height="100px" viewBox="0 0 100 100" enable-background="new 0 0 100 100" xml:space="preserve">
<g id="Your_Icon">
	<polygon fill="#DDDDDD" points="55,41.871 55,37 42,37 42,42 45,42 45,60 42,60 42,65 58,65 58,60 55,60  "/>
	<circle fill="#DDDDDD" cx="50" cy="28.871" r="5"/>
	<path fill="#DDDDDD" d="M93.621,44.371C93.621,20.318,74.053,0.75,50,0.75S6.379,20.318,6.379,44.371c0,19.396,12.727,35.867,30.266,41.521   L50,99.25l13.355-13.355C80.895,80.238,93.621,63.768,93.621,44.371z M50,76.736c-17.846,0-32.364-14.521-32.364-32.365   c0-17.845,14.519-32.364,32.364-32.364s32.364,14.519,32.364,32.364C82.364,62.216,67.846,76.736,50,76.736z"/>
</g>
</svg>