<svg xmlns="http://www.w3.org/2000/svg" xmlns:xlink="http://www.w3.org/1999/xlink" version="1.1" id="Layer_1" x="0px" y="0px" width="100px" height="100px" viewBox="0 0 100 100" enable-background="new 0 0 100 100" xml:space="preserve">
<g>
	<path fill="#FFFFFF" d="M51.084,53.364c5.404-3.788,8.953-10.052,8.953-17.138c0-11.54-9.389-20.929-20.93-20.929   c-11.539,0-20.927,9.389-20.927,20.929c0,7.052,3.517,13.288,8.877,17.081C17.967,58.099,9.5,67.021,9.5,75.074   c0,9.581,18.415,11.012,29.393,11.012s29.393-1.431,29.393-11.012C68.285,67.051,60.004,58.168,51.084,53.364z M39.107,23.298   c7.13,0,12.93,5.8,12.93,12.929c0,7.128-5.8,12.928-12.93,12.928c-7.128,0-12.927-5.799-12.927-12.928   C26.181,29.098,31.979,23.298,39.107,23.298z M38.893,78.086c-12.444,0-19.739-2.174-21.369-3.509   c0.641-6.93,14.318-16.771,21.584-16.771c7.718,0,20.514,10.275,21.153,16.773C58.628,75.913,51.333,78.086,38.893,78.086z"/>
	<path fill="#FFFFFF" d="M86.347,48.178h-7.222v-7.222c0-2.209-1.791-4-4-4s-4,1.791-4,4v7.222h-7.222c-2.209,0-4,1.791-4,4   s1.791,4,4,4h7.222v7.221c0,2.209,1.791,4,4,4s4-1.791,4-4v-7.221h7.222c2.209,0,4-1.791,4-4S88.556,48.178,86.347,48.178z"/>
</g>
</svg>