<svg xmlns="http://www.w3.org/2000/svg" xmlns:xlink="http://www.w3.org/1999/xlink" version="1.1" id="Layer_1" x="0px" y="0px" width="100px" height="100px" viewBox="0 0 100 100" enable-background="new 0 0 100 100" xml:space="preserve">
<g>
	<path fill="#FFFFFF" d="M89.633,72.435H79L67.251,84.184L56.062,72.435H10.414V18.173h79.219V72.435z M10.414,7.869   c-5.692,0-10.305,4.614-10.305,10.305v54.261c0,5.69,4.613,10.306,10.305,10.306h41.23l8.145,8.552   c1.913,2.012,4.561,3.162,7.335,3.196c0.042,0,0.085,0,0.127,0c2.73,0,5.352-1.084,7.284-3.017l8.733-8.731h6.363   c5.689,0,10.305-4.615,10.305-10.306l0.002-54.261c0-5.691-4.612-10.305-10.305-10.305H10.414z"/>
	<g>
		<path fill="#FFFFFF" d="M38.547,40.832h0.014l0.012,0c2.979-0.08,5.059-2.064,5.059-4.825c0-2.833-2.139-4.889-5.084-4.889    c-2.862,0-5.021,2.074-5.021,4.825C33.526,38.775,35.638,40.832,38.547,40.832z"/>
		<path fill="#FFFFFF" d="M61.435,40.832h0.014l0.014,0c2.978-0.08,5.056-2.064,5.056-4.825c0-2.833-2.137-4.889-5.083-4.889    c-2.861,0-5.021,2.074-5.021,4.825C56.414,38.775,58.526,40.832,61.435,40.832z"/>
		<path fill="#FFFFFF" d="M79.31,41.996c-1.26-1.163-3.405-1.077-4.569,0.183c-6.662,7.231-16.252,11.215-26.09,10.818    c-8.968-0.361-17.258-4.196-23.346-10.799c-1.162-1.258-3.306-1.347-4.567-0.184c-1.31,1.209-1.393,3.259-0.185,4.567    c7.254,7.869,17.141,12.442,27.835,12.878c0.542,0.022,1.079,0.032,1.617,0.032c0.58,0,1.157-0.013,1.736-0.036    C62.396,59,72.25,54.42,79.494,46.561c0.584-0.635,0.889-1.459,0.854-2.322C80.312,43.376,79.94,42.579,79.31,41.996z"/>
	</g>
</g>
</svg>