<svg xmlns="http://www.w3.org/2000/svg" xmlns:xlink="http://www.w3.org/1999/xlink" version="1.1" id="Layer_1" x="0px" y="0px" width="100px" height="100px" viewBox="0 0 100 100" enable-background="new 0 0 100 100" xml:space="preserve">
<path fill="#DDDDDD" d="M49.63,2.476c-26.372,0-47.75,21.379-47.75,47.75c0,26.372,21.378,47.75,47.75,47.75c26.372,0,47.75-21.378,47.75-47.75  C97.38,23.854,76.002,2.476,49.63,2.476z M67.833,47.741v-7.025h7.025v7.025H67.833z M60.808,54.774v-7.025h7.025v7.025H60.808z   M53.87,61.837v-7.025h7.025v7.025H53.87z M46.933,68.899v-7.025h7.025v7.025H46.933z M39.867,61.899v-7.025h7.025v7.025H39.867z   M32.842,54.837v-7.025h7.025v7.025H32.842z M25.843,47.819v-7.025h7.025v7.025H25.843z"/>
</svg>