<svg xmlns="http://www.w3.org/2000/svg" xmlns:xlink="http://www.w3.org/1999/xlink" version="1.1" id="Layer_1" x="0px" y="0px" width="100px" height="100px" viewBox="0 0 100 100" enable-background="new 0 0 100 100" xml:space="preserve">
<path fill="#DDDDDD" d="M80.892,60.816h-8.114c-1.425,0-2.579-1.154-2.579-2.579V47.213c0-1.424,1.154-2.579,2.579-2.579h7.959  c0.969,0,1.876,0.378,2.557,1.064c1.262,1.274,1.342,3.211,1.337,3.774v6.152c0.011,0.811-0.099,2.913-1.356,4.188  C82.634,60.459,81.788,60.816,80.892,60.816z M75.356,55.658h4.115v-5.865h-4.115V55.658z"/>
<line fill="#DDDDDD" x1="7.989" y1="95.604" x2="77.306" y2="95.604"/>
<path fill="#DDDDDD" d="M77.306,99.473H7.989c-2.137,0-3.869-1.732-3.869-3.869s1.732-3.869,3.869-3.869h69.316c2.137,0,3.869,1.732,3.869,3.869  S79.442,99.473,77.306,99.473z"/>
<path fill="#DDDDDD" d="M95.602,60.175v-10.66c0-1.764,0.007-4.65,0.017-6.414c0.004-0.876-0.181-3.925-2.741-6.499  c-1.395-1.401-3.939-3.071-8.142-3.071h-34.64c1.161-1.378,2.104-2.934,2.709-4.599c2.077-5.712,0.137-11.614-5.324-16.192  c-4.351-3.648-2.615-8.114-2.417-8.58c0.454-0.998,0.368-2.158-0.225-3.079c-0.594-0.921-1.615-1.478-2.71-1.478  c-6.006,0-10.919,3.326-12.822,8.681c-1.89,5.316-0.267,11.243,4.038,14.745c2.795,2.275,4.31,4.546,4.501,6.749  c0.155,1.791-0.608,3.161-1.014,3.752H16.84c-5.334,0-9.673,4.339-9.673,9.673v28.635c0,2.25,0.377,5.604,0.877,7.8  c0.833,3.654,4.961,9.836,15.156,9.836c1.41-0.001,5.363-0.001,10.218-0.001l19.06,0.001h7.631c8.202,0,12.197-4.56,12.914-5.474  c1.982-2.525,3.368-6.531,3.368-9.742v-2.324h8.946c3.056,0,5.771-1.173,7.649-3.301C95.661,65.602,95.709,61.723,95.602,60.175z   M37.415,18.028c-2.534-2.061-2.846-5.294-2.032-7.584c0.297-0.837,1.048-2.377,2.749-3.393c0.051,3.358,1.284,7.343,5.207,10.631  c2.341,1.963,4.833,5.125,3.406,9.046c-0.502,1.381-1.384,2.6-2.429,3.575c0.001-0.294-0.009-0.596-0.031-0.903  C43.992,25.326,41.681,21.5,37.415,18.028z M85.337,65.485c-4.449,0-12.171,0-12.171,0c-1.774,0-3.226,1.451-3.226,3.225v5.549  c0,1.773-0.896,4.366-1.99,5.761c0,0-2.36,3.007-7.842,3.007c-3.654,0-16.978-0.001-26.691-0.001c-4.857,0-8.812,0-10.203,0.001  c-0.006,0-0.01,0-0.015,0c-7.77,0-8.868-4.819-8.868-4.819c-0.394-1.729-0.716-4.595-0.716-6.368V43.204  c0-1.773,1.451-3.225,3.225-3.225c0,0,64.86,0,67.896,0c4.449,0,4.435,3.087,4.435,3.087c-0.01,1.773-0.017,4.675-0.017,6.448  c0,0,0,10.937,0,10.936C89.153,60.45,89.786,65.485,85.337,65.485z"/>
</svg>