<svg xmlns="http://www.w3.org/2000/svg" xmlns:xlink="http://www.w3.org/1999/xlink" version="1.1" x="0px" y="0px" width="100px" height="100px" viewBox="0 0 100 100" enable-background="new 0 0 100 100" xml:space="preserve">
<g id="Captions">
</g>
<g id="Your_Icon">
	<path fill="#757c78" d="M81.245,37.335c0-17.259-13.991-31.125-31.25-31.125S18.883,20.263,18.883,37.522c0,6.234,2.117,12.075,5.117,16.951v0.013   l-0.111,0.046c0.182,0.283,0.299,0.566,0.49,0.842L50.03,93.832l25.745-38.566c0.124-0.182,0.236-0.612,0.357-0.796L76.271,54   h-0.006C79.412,50,81.245,43.569,81.245,37.335z M49.995,43.834c-3.452,0-6.25-2.798-6.25-6.25c0-3.451,2.798-6.25,6.25-6.25   s6.25,2.799,6.25,6.25C56.245,41.036,53.447,43.834,49.995,43.834z"/>
</g>
</svg>